<svg xmlns="http://www.w3.org/2000/svg" width="800" height="1100" viewBox="0 0 800 1100">
  <rect width="800" height="1100" fill="#f8f6f0"/>
  
  <!-- Header -->
  <text x="400" y="50" font-family="Arial" font-size="22" font-weight="bold" text-anchor="middle" fill="#1a1a1a">Grade 10 — Mathematics Mid-Term Exam</text>
  <text x="400" y="75" font-family="Arial" font-size="14" text-anchor="middle" fill="#555">Academic Year 2018 E.C. | 2026 G.C.</text>
  
  <!-- Student Info -->
  <text x="60" y="120" font-family="Arial" font-size="14" fill="#333">Name: _________________________</text>
  <text x="450" y="120" font-family="Arial" font-size="14" fill="#333">ID: _______________</text>
  <text x="60" y="150" font-family="Arial" font-size="14" fill="#333">Section: ________</text>
  <text x="450" y="150" font-family="Arial" font-size="14" fill="#333">Date: _______________</text>
  
  <line x1="40" y1="170" x2="760" y2="170" stroke="#ccc" stroke-width="1"/>
  
  <!-- Instructions -->
  <text x="60" y="195" font-family="Arial" font-size="12" fill="#666">Circle the correct answer for each question. Each question = 1 point.</text>
  
  <!-- Section A: MCQ (1-10) -->
  <text x="60" y="230" font-family="Arial" font-size="16" font-weight="bold" fill="#009639">Section A: Multiple Choice (1-10)</text>
  
  <!-- Q1 -->
  <text x="70" y="265" font-family="Arial" font-size="15" fill="#1a1a1a">1.</text>
  <text x="100" y="265" font-family="Arial" font-size="15" fill="#1a1a1a">A</text>
  <circle cx="105" cy="261" r="8" fill="none" stroke="#333" stroke-width="1.5"/>
  <text x="135" y="265" font-family="Arial" font-size="15" fill="#1a1a1a">B</text>
  <circle cx="140" cy="261" r="8" fill="none" stroke="#333" stroke-width="1.5"/>
  <text x="170" y="265" font-family="Arial" font-size="15" fill="#1a1a1a">C</text>
  <circle cx="175" cy="261" r="8" fill="#333" stroke="#333" stroke-width="1.5"/>
  <text x="205" y="265" font-family="Arial" font-size="15" fill="#1a1a1a">D</text>
  <circle cx="210" cy="261" r="8" fill="none" stroke="#333" stroke-width="1.5"/>
  <text x="240" y="265" font-family="Arial" font-size="15" fill="#1a1a1a">E</text>
  <circle cx="245" cy="261" r="8" fill="none" stroke="#333" stroke-width="1.5"/>
  <!-- Answer written: 1. C -->
  <text x="160" y="260" font-family="Arial" font-size="11" font-weight="bold" fill="#000">C</text>

  <!-- Q2 -->
  <text x="70" y="300" font-family="Arial" font-size="15" fill="#1a1a1a">2.</text>
  <text x="100" y="300" font-family="Arial" font-size="15" fill="#1a1a1a">A</text>
  <circle cx="105" cy="296" r="8" fill="none" stroke="#333" stroke-width="1.5"/>
  <text x="135" y="300" font-family="Arial" font-size="15" fill="#1a1a1a">B</text>
  <circle cx="140" cy="296" r="8" fill="#333" stroke="#333" stroke-width="1.5"/>
  <text x="170" y="300" font-family="Arial" font-size="15" fill="#1a1a1a">C</text>
  <circle cx="175" cy="296" r="8" fill="none" stroke="#333" stroke-width="1.5"/>
  <text x="205" y="300" font-family="Arial" font-size="15" fill="#1a1a1a">D</text>
  <circle cx="210" cy="296" r="8" fill="none" stroke="#333" stroke-width="1.5"/>
  <text x="240" y="300" font-family="Arial" font-size="15" fill="#1a1a1a">E</text>
  <circle cx="245" cy="296" r="8" fill="none" stroke="#333" stroke-width="1.5"/>
  <text x="125" y="295" font-family="Arial" font-size="11" font-weight="bold" fill="#000">B</text>

  <!-- Q3 -->
  <text x="70" y="335" font-family="Arial" font-size="15" fill="#1a1a1a">3.</text>
  <text x="100" y="335" font-family="Arial" font-size="15" fill="#1a1a1a">A</text>
  <circle cx="105" cy="331" r="8" fill="none" stroke="#333" stroke-width="1.5"/>
  <text x="135" y="335" font-family="Arial" font-size="15" fill="#1a1a1a">B</text>
  <circle cx="140" cy="331" r="8" fill="none" stroke="#333" stroke-width="1.5"/>
  <text x="170" y="335" font-family="Arial" font-size="15" fill="#1a1a1a">C</text>
  <circle cx="175" cy="331" r="8" fill="none" stroke="#333" stroke-width="1.5"/>
  <text x="205" y="335" font-family="Arial" font-size="15" fill="#1a1a1a">D</text>
  <circle cx="210" cy="331" r="8" fill="#333" stroke="#333" stroke-width="1.5"/>
  <text x="240" y="335" font-family="Arial" font-size="15" fill="#1a1a1a">E</text>
  <circle cx="245" cy="331" r="8" fill="none" stroke="#333" stroke-width="1.5"/>
  <text x="195" y="330" font-family="Arial" font-size="11" font-weight="bold" fill="#000">D</text>

  <!-- Q4 -->
  <text x="70" y="370" font-family="Arial" font-size="15" fill="#1a1a1a">4.</text>
  <text x="100" y="370" font-family="Arial" font-size="15" fill="#1a1a1a">A</text>
  <circle cx="105" cy="366" r="8" fill="#333" stroke="#333" stroke-width="1.5"/>
  <text x="135" y="370" font-family="Arial" font-size="15" fill="#1a1a1a">B</text>
  <circle cx="140" cy="366" r="8" fill="none" stroke="#333" stroke-width="1.5"/>
  <text x="170" y="370" font-family="Arial" font-size="15" fill="#1a1a1a">C</text>
  <circle cx="175" cy="366" r="8" fill="none" stroke="#333" stroke-width="1.5"/>
  <text x="205" y="370" font-family="Arial" font-size="15" fill="#1a1a1a">D</text>
  <circle cx="210" cy="366" r="8" fill="none" stroke="#333" stroke-width="1.5"/>
  <text x="240" y="370" font-family="Arial" font-size="15" fill="#1a1a1a">E</text>
  <circle cx="245" cy="366" r="8" fill="none" stroke="#333" stroke-width="1.5"/>
  <text x="90" y="365" font-family="Arial" font-size="11" font-weight="bold" fill="#000">A</text>

  <!-- Q5 -->
  <text x="70" y="405" font-family="Arial" font-size="15" fill="#1a1a1a">5.</text>
  <text x="100" y="405" font-family="Arial" font-size="15" fill="#1a1a1a">A</text>
  <circle cx="105" cy="401" r="8" fill="none" stroke="#333" stroke-width="1.5"/>
  <text x="135" y="405" font-family="Arial" font-size="15" fill="#1a1a1a">B</text>
  <circle cx="140" cy="401" r="8" fill="none" stroke="#333" stroke-width="1.5"/>
  <text x="170" y="405" font-family="Arial" font-size="15" fill="#1a1a1a">C</text>
  <circle cx="175" cy="401" r="8" fill="none" stroke="#333" stroke-width="1.5"/>
  <text x="205" y="405" font-family="Arial" font-size="15" fill="#1a1a1a">D</text>
  <circle cx="210" cy="401" r="8" fill="none" stroke="#333" stroke-width="1.5"/>
  <text x="240" y="405" font-family="Arial" font-size="15" fill="#1a1a1a">E</text>
  <circle cx="245" cy="401" r="8" fill="#333" stroke="#333" stroke-width="1.5"/>
  <text x="230" y="400" font-family="Arial" font-size="11" font-weight="bold" fill="#000">E</text>

  <!-- Q6 -->
  <text x="70" y="440" font-family="Arial" font-size="15" fill="#1a1a1a">6.</text>
  <text x="100" y="440" font-family="Arial" font-size="15" fill="#1a1a1a">A</text>
  <circle cx="105" cy="436" r="8" fill="none" stroke="#333" stroke-width="1.5"/>
  <text x="135" y="440" font-family="Arial" font-size="15" fill="#1a1a1a">B</text>
  <circle cx="140" cy="436" r="8" fill="#333" stroke="#333" stroke-width="1.5"/>
  <text x="170" y="440" font-family="Arial" font-size="15" fill="#1a1a1a">C</text>
  <circle cx="175" cy="436" r="8" fill="none" stroke="#333" stroke-width="1.5"/>
  <text x="205" y="440" font-family="Arial" font-size="15" fill="#1a1a1a">D</text>
  <circle cx="210" cy="436" r="8" fill="none" stroke="#333" stroke-width="1.5"/>
  <text x="240" y="440" font-family="Arial" font-size="15" fill="#1a1a1a">E</text>
  <circle cx="245" cy="436" r="8" fill="none" stroke="#333" stroke-width="1.5"/>
  <text x="125" y="435" font-family="Arial" font-size="11" font-weight="bold" fill="#000">B</text>

  <!-- Q7 -->
  <text x="70" y="475" font-family="Arial" font-size="15" fill="#1a1a1a">7.</text>
  <text x="100" y="475" font-family="Arial" font-size="15" fill="#1a1a1a">A</text>
  <circle cx="105" cy="471" r="8" fill="none" stroke="#333" stroke-width="1.5"/>
  <text x="135" y="475" font-family="Arial" font-size="15" fill="#1a1a1a">B</text>
  <circle cx="140" cy="471" r="8" fill="none" stroke="#333" stroke-width="1.5"/>
  <text x="170" y="475" font-family="Arial" font-size="15" fill="#1a1a1a">C</text>
  <circle cx="175" cy="471" r="8" fill="#333" stroke="#333" stroke-width="1.5"/>
  <text x="205" y="475" font-family="Arial" font-size="15" fill="#1a1a1a">D</text>
  <circle cx="210" cy="471" r="8" fill="none" stroke="#333" stroke-width="1.5"/>
  <text x="240" y="475" font-family="Arial" font-size="15" fill="#1a1a1a">E</text>
  <circle cx="245" cy="471" r="8" fill="none" stroke="#333" stroke-width="1.5"/>
  <text x="160" y="470" font-family="Arial" font-size="11" font-weight="bold" fill="#000">C</text>

  <!-- Q8 -->
  <text x="70" y="510" font-family="Arial" font-size="15" fill="#1a1a1a">8.</text>
  <text x="100" y="510" font-family="Arial" font-size="15" fill="#1a1a1a">A</text>
  <circle cx="105" cy="506" r="8" fill="none" stroke="#333" stroke-width="1.5"/>
  <text x="135" y="510" font-family="Arial" font-size="15" fill="#1a1a1a">B</text>
  <circle cx="140" cy="506" r="8" fill="none" stroke="#333" stroke-width="1.5"/>
  <text x="170" y="510" font-family="Arial" font-size="15" fill="#1a1a1a">C</text>
  <circle cx="175" cy="506" r="8" fill="none" stroke="#333" stroke-width="1.5"/>
  <text x="205" y="510" font-family="Arial" font-size="15" fill="#1a1a1a">D</text>
  <circle cx="210" cy="506" r="8" fill="#333" stroke="#333" stroke-width="1.5"/>
  <text x="240" y="510" font-family="Arial" font-size="15" fill="#1a1a1a">E</text>
  <circle cx="245" cy="506" r="8" fill="none" stroke="#333" stroke-width="1.5"/>
  <text x="195" y="505" font-family="Arial" font-size="11" font-weight="bold" fill="#000">D</text>

  <!-- Q9 -->
  <text x="70" y="545" font-family="Arial" font-size="15" fill="#1a1a1a">9.</text>
  <text x="100" y="545" font-family="Arial" font-size="15" fill="#1a1a1a">A</text>
  <circle cx="105" cy="541" r="8" fill="#333" stroke="#333" stroke-width="1.5"/>
  <text x="135" y="545" font-family="Arial" font-size="15" fill="#1a1a1a">B</text>
  <circle cx="140" cy="541" r="8" fill="none" stroke="#333" stroke-width="1.5"/>
  <text x="170" y="545" font-family="Arial" font-size="15" fill="#1a1a1a">C</text>
  <circle cx="175" cy="541" r="8" fill="none" stroke="#333" stroke-width="1.5"/>
  <text x="205" y="545" font-family="Arial" font-size="15" fill="#1a1a1a">D</text>
  <circle cx="210" cy="541" r="8" fill="none" stroke="#333" stroke-width="1.5"/>
  <text x="240" y="545" font-family="Arial" font-size="15" fill="#1a1a1a">E</text>
  <circle cx="245" cy="541" r="8" fill="none" stroke="#333" stroke-width="1.5"/>
  <text x="90" y="540" font-family="Arial" font-size="11" font-weight="bold" fill="#000">A</text>

  <!-- Q10 -->
  <text x="70" y="580" font-family="Arial" font-size="15" fill="#1a1a1a">10.</text>
  <text x="108" y="580" font-family="Arial" font-size="15" fill="#1a1a1a">A</text>
  <circle cx="113" cy="576" r="8" fill="none" stroke="#333" stroke-width="1.5"/>
  <text x="143" y="580" font-family="Arial" font-size="15" fill="#1a1a1a">B</text>
  <circle cx="148" cy="576" r="8" fill="none" stroke="#333" stroke-width="1.5"/>
  <text x="178" y="580" font-family="Arial" font-size="15" fill="#1a1a1a">C</text>
  <circle cx="183" cy="576" r="8" fill="none" stroke="#333" stroke-width="1.5"/>
  <text x="213" y="580" font-family="Arial" font-size="15" fill="#1a1a1a">D</text>
  <circle cx="218" cy="576" r="8" fill="#333" stroke="#333" stroke-width="1.5"/>
  <text x="248" y="580" font-family="Arial" font-size="15" fill="#1a1a1a">E</text>
  <circle cx="253" cy="576" r="8" fill="none" stroke="#333" stroke-width="1.5"/>
  <text x="203" y="575" font-family="Arial" font-size="11" font-weight="bold" fill="#000">D</text>

  <!-- Section B: True/False (11-15) -->
  <line x1="40" y1="610" x2="760" y2="610" stroke="#ccc" stroke-width="1"/>
  <text x="60" y="640" font-family="Arial" font-size="16" font-weight="bold" fill="#DA121A">Section B: True or False (11-15)</text>
  <text x="60" y="660" font-family="Arial" font-size="11" fill="#666">Write T for True, F for False</text>

  <!-- Q11 -->
  <text x="70" y="695" font-family="Arial" font-size="15" fill="#1a1a1a">11.</text>
  <text x="110" y="695" font-family="Arial" font-size="15" fill="#1a1a1a">Answer: </text>
  <text x="175" y="695" font-family="Arial" font-size="15" font-weight="bold" fill="#000">T</text>
  <line x1="170" y1="700" x2="190" y2="700" stroke="#333" stroke-width="1"/>

  <!-- Q12 -->
  <text x="70" y="730" font-family="Arial" font-size="15" fill="#1a1a1a">12.</text>
  <text x="110" y="730" font-family="Arial" font-size="15" fill="#1a1a1a">Answer: </text>
  <text x="175" y="730" font-family="Arial" font-size="15" font-weight="bold" fill="#000">F</text>
  <line x1="170" y1="735" x2="190" y2="735" stroke="#333" stroke-width="1"/>

  <!-- Q13 -->
  <text x="70" y="765" font-family="Arial" font-size="15" fill="#1a1a1a">13.</text>
  <text x="115" y="765" font-family="Arial" font-size="15" fill="#1a1a1a">Answer: </text>
  <text x="180" y="765" font-family="Arial" font-size="15" font-weight="bold" fill="#000">T</text>
  <line x1="175" y1="770" x2="195" y2="770" stroke="#333" stroke-width="1"/>

  <!-- Q14 -->
  <text x="70" y="800" font-family="Arial" font-size="15" fill="#1a1a1a">14.</text>
  <text x="115" y="800" font-family="Arial" font-size="15" fill="#1a1a1a">Answer: </text>
  <text x="180" y="800" font-family="Arial" font-size="15" font-weight="bold" fill="#000">F</text>
  <line x1="175" y1="805" x2="195" y2="805" stroke="#333" stroke-width="1"/>

  <!-- Q15 -->
  <text x="70" y="835" font-family="Arial" font-size="15" fill="#1a1a1a">15.</text>
  <text x="115" y="835" font-family="Arial" font-size="15" fill="#1a1a1a">Answer: </text>
  <text x="180" y="835" font-family="Arial" font-size="15" font-weight="bold" fill="#000">T</text>
  <line x1="175" y1="840" x2="195" y2="840" stroke="#333" stroke-width="1"/>

  <!-- Answer Key (for test reference — cut off in real sheet) -->
  <line x1="40" y1="870" x2="760" y2="870" stroke="#DA121A" stroke-width="2" stroke-dasharray="8,4"/>
  <text x="60" y="900" font-family="Arial" font-size="12" fill="#DA121A" font-weight="bold">ANSWER KEY (for test reference only):</text>
  <text x="60" y="920" font-family="Arial" font-size="11" fill="#999">1.C  2.B  3.D  4.A  5.E  6.B  7.C  8.D  9.A  10.D</text>
  <text x="60" y="938" font-family="Arial" font-size="11" fill="#999">11.T  12.F  13.T  14.F  15.T</text>
  
  <!-- Footer -->
  <text x="400" y="1060" font-family="Arial" font-size="10" text-anchor="middle" fill="#aaa">EthioGrade Test Sheet — Generated for device testing</text>
</svg>
